M48
; DRILL file KiCad 10.0.0-rc2 date 2026-08-28T20:57:59
; FORMAT={-:-/ absolute / metric / decimal}
; #@! TF.CreationDate,2026-08-28T20:57:59+00:00
; #@! TF.GenerationSoftware,Kicad,Pcbnew,10.0.0-rc2
; #@! TF.FileFunction,MixedPlating,1,2
FMAT,2
METRIC
; #@! TA.AperFunction,Plated,PTH,ComponentDrill
T1C0.600
; #@! TA.AperFunction,Plated,PTH,ComponentDrill
T2C0.700
; #@! TA.AperFunction,Plated,PTH,ComponentDrill
T3C0.800
; #@! TA.AperFunction,Plated,PTH,ComponentDrill
T4C0.900
; #@! TA.AperFunction,Plated,PTH,ComponentDrill
T5C1.000
; #@! TA.AperFunction,Plated,PTH,ComponentDrill
T6C1.100
; #@! TA.AperFunction,Plated,PTH,ComponentDrill
T7C1.200
; #@! TA.AperFunction,Plated,PTH,ComponentDrill
T8C1.600
%
G90
G05
T1
X106.854Y-123.499
X108.754Y-118.499
T2
X108.446Y-103.641
X108.446Y-113.641
X118.446Y-103.641
X118.446Y-113.641
T3
X91.204Y-114.249
X92.804Y-96.846
X92.804Y-100.346
X93.404Y-106.749
X95.724Y-92.499
X105.884Y-92.499
X114.224Y-86.999
X114.804Y-117.499
X114.804Y-125.119
X119.884Y-117.499
X119.884Y-125.119
X122.994Y-97.189
X122.994Y-99.729
X122.994Y-102.269
X122.994Y-104.809
X124.384Y-86.999
X128.554Y-86.499
X130.614Y-97.189
X130.614Y-99.729
X130.614Y-102.269
X130.614Y-104.809
X131.054Y-86.499
X137.804Y-87.499
X140.304Y-87.499
X149.804Y-87.499
X152.304Y-87.499
X157.039Y-101.694
X157.039Y-109.314
X159.579Y-101.694
X159.579Y-109.314
X160.224Y-85.999
X164.151Y-97.999
X164.304Y-110.499
X164.651Y-122.499
X167.651Y-97.999
X167.804Y-110.499
X168.151Y-122.499
X170.384Y-85.999
X174.224Y-85.999
X174.224Y-91.999
X174.224Y-102.999
X174.224Y-107.999
X174.304Y-97.999
X176.304Y-115.999
X178.844Y-115.999
X181.384Y-115.999
X184.384Y-85.999
X184.384Y-91.999
X184.384Y-102.999
X184.384Y-107.999
X184.464Y-97.999
T4
X168.034Y-91.499
X170.574Y-91.499
T5
X101.304Y-98.749
X101.304Y-106.249
X101.304Y-109.999
X101.304Y-119.999
X124.304Y-109.499
X124.304Y-114.499
T6
X92.721Y-119.499
X92.721Y-123.309
X109.224Y-94.499
X119.384Y-94.499
X180.221Y-121.594
X180.221Y-125.404
T7
X131.804Y-119.322
X131.804Y-124.322
X136.596Y-96.286
X136.596Y-100.096
X136.596Y-103.906
X136.596Y-107.716
X136.596Y-111.526
X151.836Y-96.286
X151.836Y-100.096
X151.836Y-107.716
X151.836Y-111.526
T8
X142.184Y-122.499
X157.424Y-122.499
M30
