%TF.GenerationSoftware,KiCad,Pcbnew,10.0.0-rc2*%
%TF.CreationDate,2026-08-28T20:57:52+00:00*%
%TF.ProjectId,wandler,77616e64-6c65-4722-9e6b-696361645f70,rev?*%
%TF.SameCoordinates,Original*%
%TF.FileFunction,Soldermask,Top*%
%TF.FilePolarity,Negative*%
%FSLAX46Y46*%
G04 Gerber Fmt 4.6, Leading zero omitted, Abs format (unit mm)*
G04 Created by KiCad (PCBNEW 10.0.0-rc2) date 2026-08-28 20:57:52*
%MOMM*%
%LPD*%
G01*
G04 APERTURE LIST*
G04 Aperture macros list*
%AMRoundRect*
0 Rectangle with rounded corners*
0 $1 Rounding radius*
0 $2 $3 $4 $5 $6 $7 $8 $9 X,Y pos of 4 corners*
0 Add a 4 corners polygon primitive as box body*
4,1,4,$2,$3,$4,$5,$6,$7,$8,$9,$2,$3,0*
0 Add four circle primitives for the rounded corners*
1,1,$1+$1,$2,$3*
1,1,$1+$1,$4,$5*
1,1,$1+$1,$6,$7*
1,1,$1+$1,$8,$9*
0 Add four rect primitives between the rounded corners*
20,1,$1+$1,$2,$3,$4,$5,0*
20,1,$1+$1,$4,$5,$6,$7,0*
20,1,$1+$1,$6,$7,$8,$9,0*
20,1,$1+$1,$8,$9,$2,$3,0*%
G04 Aperture macros list end*
%ADD10C,1.440000*%
%ADD11RoundRect,0.250001X0.949999X-0.949999X0.949999X0.949999X-0.949999X0.949999X-0.949999X-0.949999X0*%
%ADD12C,2.400000*%
%ADD13RoundRect,0.250000X1.350000X1.350000X-1.350000X1.350000X-1.350000X-1.350000X1.350000X-1.350000X0*%
%ADD14C,3.200000*%
%ADD15R,2.000000X2.000000*%
%ADD16C,2.000000*%
%ADD17C,1.600000*%
%ADD18RoundRect,0.250000X-0.550000X-0.550000X0.550000X-0.550000X0.550000X0.550000X-0.550000X0.550000X0*%
%ADD19RoundRect,0.250000X0.750000X-0.750000X0.750000X0.750000X-0.750000X0.750000X-0.750000X-0.750000X0*%
%ADD20R,1.800000X1.800000*%
%ADD21C,1.800000*%
%ADD22R,2.500000X2.500000*%
%ADD23C,2.500000*%
%ADD24R,1.600000X1.600000*%
%ADD25O,1.600000X1.600000*%
%ADD26RoundRect,0.250000X-0.550000X0.550000X-0.550000X-0.550000X0.550000X-0.550000X0.550000X0.550000X0*%
%ADD27RoundRect,0.250000X-0.425000X-1.075000X0.425000X-1.075000X0.425000X1.075000X-0.425000X1.075000X0*%
%ADD28RoundRect,0.249999X-0.850001X-0.850001X0.850001X-0.850001X0.850001X0.850001X-0.850001X0.850001X0*%
%ADD29C,2.200000*%
%ADD30RoundRect,0.150000X-0.587500X-0.150000X0.587500X-0.150000X0.587500X0.150000X-0.587500X0.150000X0*%
G04 APERTURE END LIST*
D10*
%TO.C,RV3*%
X176303516Y-115998516D03*
X178843516Y-115998516D03*
X181383516Y-115998516D03*
%TD*%
D11*
%TO.C,C2*%
X131803516Y-124322475D03*
D12*
X131803516Y-119322475D03*
%TD*%
D13*
%TO.C,D5*%
X157423516Y-122498516D03*
D14*
X142183516Y-122498516D03*
%TD*%
D15*
%TO.C,FL1*%
X108446016Y-103641016D03*
D16*
X118446016Y-103641016D03*
X108446016Y-113641016D03*
X118446016Y-113641016D03*
%TD*%
D17*
%TO.C,R3*%
X95723516Y-92498516D03*
X105883516Y-92498516D03*
%TD*%
D18*
%TO.C,C6*%
X164650865Y-122498516D03*
D17*
X168150865Y-122498516D03*
%TD*%
D19*
%TO.C,J1*%
X92721016Y-123308516D03*
D16*
X92721016Y-119498516D03*
%TD*%
D17*
%TO.C,C9*%
X128553516Y-86498516D03*
X131053516Y-86498516D03*
%TD*%
D20*
%TO.C,D3*%
X168033516Y-91498516D03*
D21*
X170573516Y-91498516D03*
%TD*%
D16*
%TO.C,C1*%
X101303516Y-119998516D03*
X101303516Y-109998516D03*
%TD*%
D17*
%TO.C,R6*%
X174223516Y-102998516D03*
X184383516Y-102998516D03*
%TD*%
D22*
%TO.C,T1*%
X151836016Y-111526016D03*
D23*
X151836016Y-107716016D03*
X151836016Y-100096016D03*
X151836016Y-96286016D03*
X136596016Y-96286016D03*
X136596016Y-100096016D03*
X136596016Y-103906016D03*
X136596016Y-107716016D03*
X136596016Y-111526016D03*
%TD*%
D18*
%TO.C,C10*%
X149803516Y-87498516D03*
D17*
X152303516Y-87498516D03*
%TD*%
%TO.C,TH1*%
X108753516Y-118498516D03*
X106853516Y-123498516D03*
%TD*%
%TO.C,R1*%
X174223516Y-85998516D03*
X184383516Y-85998516D03*
%TD*%
D18*
%TO.C,C7*%
X164150865Y-97998516D03*
D17*
X167650865Y-97998516D03*
%TD*%
D24*
%TO.C,D15*%
X114803516Y-125118516D03*
D25*
X119883516Y-125118516D03*
X119883516Y-117498516D03*
X114803516Y-117498516D03*
%TD*%
D17*
%TO.C,C11*%
X137803516Y-87498516D03*
X140303516Y-87498516D03*
%TD*%
%TO.C,L1*%
X114223516Y-86998516D03*
X124383516Y-86998516D03*
%TD*%
D26*
%TO.C,U3*%
X159578516Y-101693516D03*
D17*
X157038516Y-101693516D03*
X157038516Y-109313516D03*
X159578516Y-109313516D03*
%TD*%
D21*
%TO.C,RV1*%
X93403516Y-106748516D03*
X91203516Y-114248516D03*
%TD*%
D17*
%TO.C,R8*%
X160223516Y-85998516D03*
X170383516Y-85998516D03*
%TD*%
D27*
%TO.C,F1*%
X99053516Y-123998516D03*
X103553516Y-123998516D03*
%TD*%
D28*
%TO.C,D1*%
X109223516Y-94498516D03*
D29*
X119383516Y-94498516D03*
%TD*%
D16*
%TO.C,C3*%
X101303516Y-106248516D03*
X101303516Y-98748516D03*
%TD*%
D18*
%TO.C,U1*%
X122993516Y-97188516D03*
D17*
X122993516Y-99728516D03*
X122993516Y-102268516D03*
X122993516Y-104808516D03*
X130613516Y-104808516D03*
X130613516Y-102268516D03*
X130613516Y-99728516D03*
X130613516Y-97188516D03*
%TD*%
D26*
%TO.C,C5*%
X92803516Y-96845865D03*
D17*
X92803516Y-100345865D03*
%TD*%
D16*
%TO.C,C4*%
X124303516Y-114498516D03*
X124303516Y-109498516D03*
%TD*%
D17*
%TO.C,R7*%
X174223516Y-107998516D03*
X184383516Y-107998516D03*
%TD*%
%TO.C,R5*%
X174303516Y-97998516D03*
X184463516Y-97998516D03*
%TD*%
D30*
%TO.C,U2*%
X90366016Y-87548516D03*
X90366016Y-89448516D03*
X92241016Y-88498516D03*
%TD*%
D19*
%TO.C,J2*%
X180221016Y-125403516D03*
D16*
X180221016Y-121593516D03*
%TD*%
D18*
%TO.C,C8*%
X164303516Y-110498516D03*
D17*
X167803516Y-110498516D03*
%TD*%
%TO.C,R4*%
X174223516Y-91998516D03*
X184383516Y-91998516D03*
%TD*%
M02*
