%TF.GenerationSoftware,KiCad,Pcbnew,10.0.0-rc2*%
%TF.CreationDate,2026-08-28T20:57:52+00:00*%
%TF.ProjectId,wandler,77616e64-6c65-4722-9e6b-696361645f70,rev?*%
%TF.SameCoordinates,Original*%
%TF.FileFunction,Other,User*%
%FSLAX46Y46*%
G04 Gerber Fmt 4.6, Leading zero omitted, Abs format (unit mm)*
G04 Created by KiCad (PCBNEW 10.0.0-rc2) date 2026-08-28 20:57:52*
%MOMM*%
%LPD*%
G01*
G04 APERTURE LIST*
%ADD10C,0.050000*%
G04 APERTURE END LIST*
%TO.C,RV3*%
D10*
X173823516Y-113328516D02*
X183863516Y-113328516D01*
X183863516Y-118658516D01*
X173823516Y-118658516D01*
X173823516Y-113328516D01*
%TO.C,C2*%
X138303516Y-121822475D02*
G75*
G02*
X125303516Y-121822475I-6500000J0D01*
G01*
X125303516Y-121822475D02*
G75*
G02*
X138303516Y-121822475I6500000J0D01*
G01*
%TO.C,D5*%
X140333516Y-119648516D02*
X159273516Y-119648516D01*
X159273516Y-125348516D01*
X140333516Y-125348516D01*
X140333516Y-119648516D01*
%TO.C,FL1*%
X106196016Y-113641016D02*
X106196016Y-103641016D01*
X108446016Y-101391016D02*
X118446016Y-101391016D01*
X118446016Y-115891016D02*
X108446016Y-115891016D01*
X120696016Y-103641016D02*
X120696016Y-113641016D01*
X106196016Y-103641016D02*
G75*
G02*
X108446016Y-101391016I2250000J0D01*
G01*
X108446016Y-115891016D02*
G75*
G02*
X106196016Y-113641016I0J2250000D01*
G01*
X118446016Y-101391016D02*
G75*
G02*
X120696016Y-103641016I0J-2250000D01*
G01*
X120696016Y-113641016D02*
G75*
G02*
X118446016Y-115891016I-2250000J0D01*
G01*
%TO.C,R3*%
X94673516Y-90598516D02*
X106933516Y-90598516D01*
X106933516Y-94398516D01*
X94673516Y-94398516D01*
X94673516Y-90598516D01*
%TO.C,C6*%
X170650865Y-122498516D02*
G75*
G02*
X162150865Y-122498516I-4250000J0D01*
G01*
X162150865Y-122498516D02*
G75*
G02*
X170650865Y-122498516I4250000J0D01*
G01*
%TO.C,J1*%
X88521016Y-117098516D02*
X96831016Y-117098516D01*
X96831016Y-125708516D01*
X88521016Y-125708516D01*
X88521016Y-117098516D01*
%TO.C,C9*%
X127053516Y-84998516D02*
X132553516Y-84998516D01*
X132553516Y-87998516D01*
X127053516Y-87998516D01*
X127053516Y-84998516D01*
%TO.C,D3*%
X166883516Y-89288516D02*
X171723516Y-89288516D01*
X171723516Y-93708516D01*
X166883516Y-93708516D01*
X166883516Y-89288516D01*
%TO.C,C1*%
X98553516Y-108248516D02*
X104053516Y-108248516D01*
X104053516Y-121748516D01*
X98553516Y-121748516D01*
X98553516Y-108248516D01*
%TO.C,R6*%
X173173516Y-101498516D02*
X185433516Y-101498516D01*
X185433516Y-104498516D01*
X173173516Y-104498516D01*
X173173516Y-101498516D01*
%TO.C,T1*%
X133466016Y-93156016D02*
X133466016Y-114656016D01*
X133466016Y-114656016D02*
X154966016Y-114656016D01*
X154966016Y-93156016D02*
X133466016Y-93156016D01*
X154966016Y-114656016D02*
X154966016Y-93156016D01*
%TO.C,C10*%
X154453516Y-87498516D02*
G75*
G02*
X147653516Y-87498516I-3400000J0D01*
G01*
X147653516Y-87498516D02*
G75*
G02*
X154453516Y-87498516I3400000J0D01*
G01*
%TO.C,TH1*%
X105553516Y-116248516D02*
X105553516Y-125748516D01*
X110053516Y-116248516D02*
X105553516Y-116248516D01*
X110053516Y-116248516D02*
X110053516Y-125748516D01*
X110053516Y-125748516D02*
X105553516Y-125748516D01*
%TO.C,R1*%
X173173516Y-84498516D02*
X185433516Y-84498516D01*
X185433516Y-87498516D01*
X173173516Y-87498516D01*
X173173516Y-84498516D01*
%TO.C,C7*%
X170150865Y-97998516D02*
G75*
G02*
X161650865Y-97998516I-4250000J0D01*
G01*
X161650865Y-97998516D02*
G75*
G02*
X170150865Y-97998516I4250000J0D01*
G01*
%TO.C,D15*%
X112753516Y-126168516D02*
X112753516Y-116448516D01*
X112753516Y-126168516D02*
X121653516Y-126168516D01*
X121653516Y-116448516D02*
X112753516Y-116448516D01*
X121653516Y-116448516D02*
X121653516Y-126168516D01*
%TO.C,C11*%
X136303516Y-85998516D02*
X141803516Y-85998516D01*
X141803516Y-88998516D01*
X136303516Y-88998516D01*
X136303516Y-85998516D01*
%TO.C,L1*%
X113173516Y-85098516D02*
X125433516Y-85098516D01*
X125433516Y-88898516D01*
X113173516Y-88898516D01*
X113173516Y-85098516D01*
%TO.C,U3*%
X155508516Y-100633516D02*
X161098516Y-100633516D01*
X161098516Y-110363516D01*
X155508516Y-110363516D01*
X155508516Y-100633516D01*
%TO.C,RV1*%
X89553516Y-104248516D02*
X89553516Y-116748516D01*
X95053516Y-104248516D02*
X89553516Y-104248516D01*
X95053516Y-104248516D02*
X95053516Y-116748516D01*
X95053516Y-116748516D02*
X89553516Y-116748516D01*
%TO.C,R8*%
X159173516Y-84498516D02*
X171433516Y-84498516D01*
X171433516Y-87498516D01*
X159173516Y-87498516D01*
X159173516Y-84498516D01*
%TO.C,F1*%
X98123516Y-122418516D02*
X104483516Y-122418516D01*
X104483516Y-125578516D01*
X98123516Y-125578516D01*
X98123516Y-122418516D01*
%TO.C,D1*%
X107873516Y-92898516D02*
X120733516Y-92898516D01*
X120733516Y-96098516D01*
X107873516Y-96098516D01*
X107873516Y-92898516D01*
%TO.C,C3*%
X98553516Y-97498516D02*
X104053516Y-97498516D01*
X104053516Y-107498516D01*
X98553516Y-107498516D01*
X98553516Y-97498516D01*
%TO.C,U1*%
X121933516Y-95668516D02*
X131663516Y-95668516D01*
X131663516Y-106328516D01*
X121933516Y-106328516D01*
X121933516Y-95668516D01*
%TO.C,C5*%
X97053516Y-98595865D02*
G75*
G02*
X88553516Y-98595865I-4250000J0D01*
G01*
X88553516Y-98595865D02*
G75*
G02*
X97053516Y-98595865I4250000J0D01*
G01*
%TO.C,C4*%
X121553516Y-107998516D02*
X127053516Y-107998516D01*
X127053516Y-115998516D01*
X121553516Y-115998516D01*
X121553516Y-107998516D01*
%TO.C,R7*%
X173173516Y-106498516D02*
X185433516Y-106498516D01*
X185433516Y-109498516D01*
X173173516Y-109498516D01*
X173173516Y-106498516D01*
%TO.C,R5*%
X173253516Y-96498516D02*
X185513516Y-96498516D01*
X185513516Y-99498516D01*
X173253516Y-99498516D01*
X173253516Y-96498516D01*
%TO.C,U2*%
X89373516Y-86998516D02*
X90403516Y-86998516D01*
X89373516Y-88108516D02*
X89373516Y-86998516D01*
X89373516Y-88888516D02*
X90403516Y-88888516D01*
X89373516Y-89998516D02*
X89373516Y-88888516D01*
X90403516Y-86798516D02*
X92203516Y-86798516D01*
X90403516Y-86998516D02*
X90403516Y-86798516D01*
X90403516Y-88108516D02*
X89373516Y-88108516D01*
X90403516Y-88888516D02*
X90403516Y-88108516D01*
X90403516Y-89998516D02*
X89373516Y-89998516D01*
X90403516Y-90198516D02*
X90403516Y-89998516D01*
X92203516Y-86798516D02*
X92203516Y-87948516D01*
X92203516Y-87948516D02*
X93233516Y-87948516D01*
X92203516Y-89048516D02*
X92203516Y-90198516D01*
X92203516Y-90198516D02*
X90403516Y-90198516D01*
X93233516Y-87948516D02*
X93233516Y-89048516D01*
X93233516Y-89048516D02*
X92203516Y-89048516D01*
%TO.C,J2*%
X176021016Y-119193516D02*
X184331016Y-119193516D01*
X184331016Y-127803516D01*
X176021016Y-127803516D01*
X176021016Y-119193516D01*
%TO.C,C8*%
X170303516Y-110498516D02*
G75*
G02*
X161803516Y-110498516I-4250000J0D01*
G01*
X161803516Y-110498516D02*
G75*
G02*
X170303516Y-110498516I4250000J0D01*
G01*
%TO.C,R4*%
X173173516Y-90498516D02*
X185433516Y-90498516D01*
X185433516Y-93498516D01*
X173173516Y-93498516D01*
X173173516Y-90498516D01*
%TD*%
M02*
