%TF.GenerationSoftware,KiCad,Pcbnew,10.0.0-rc2*%
%TF.CreationDate,2026-08-28T20:57:52+00:00*%
%TF.ProjectId,wandler,77616e64-6c65-4722-9e6b-696361645f70,rev?*%
%TF.SameCoordinates,Original*%
%TF.FileFunction,Copper,L1,Top*%
%TF.FilePolarity,Positive*%
%FSLAX46Y46*%
G04 Gerber Fmt 4.6, Leading zero omitted, Abs format (unit mm)*
G04 Created by KiCad (PCBNEW 10.0.0-rc2) date 2026-08-28 20:57:52*
%MOMM*%
%LPD*%
G01*
G04 APERTURE LIST*
G04 Aperture macros list*
%AMRoundRect*
0 Rectangle with rounded corners*
0 $1 Rounding radius*
0 $2 $3 $4 $5 $6 $7 $8 $9 X,Y pos of 4 corners*
0 Add a 4 corners polygon primitive as box body*
4,1,4,$2,$3,$4,$5,$6,$7,$8,$9,$2,$3,0*
0 Add four circle primitives for the rounded corners*
1,1,$1+$1,$2,$3*
1,1,$1+$1,$4,$5*
1,1,$1+$1,$6,$7*
1,1,$1+$1,$8,$9*
0 Add four rect primitives between the rounded corners*
20,1,$1+$1,$2,$3,$4,$5,0*
20,1,$1+$1,$4,$5,$6,$7,0*
20,1,$1+$1,$6,$7,$8,$9,0*
20,1,$1+$1,$8,$9,$2,$3,0*%
G04 Aperture macros list end*
%ADD10C,0.300000*%
%TA.AperFunction,NonConductor*%
%ADD11C,0.300000*%
%TD*%
%TA.AperFunction,ComponentPad*%
%ADD12C,1.440000*%
%TD*%
%TA.AperFunction,ComponentPad*%
%ADD13RoundRect,0.250001X0.949999X-0.949999X0.949999X0.949999X-0.949999X0.949999X-0.949999X-0.949999X0*%
%TD*%
%TA.AperFunction,ComponentPad*%
%ADD14C,2.400000*%
%TD*%
%TA.AperFunction,ComponentPad*%
%ADD15RoundRect,0.250000X1.350000X1.350000X-1.350000X1.350000X-1.350000X-1.350000X1.350000X-1.350000X0*%
%TD*%
%TA.AperFunction,ComponentPad*%
%ADD16C,3.200000*%
%TD*%
%TA.AperFunction,ComponentPad*%
%ADD17R,2.000000X2.000000*%
%TD*%
%TA.AperFunction,ComponentPad*%
%ADD18C,2.000000*%
%TD*%
%TA.AperFunction,ComponentPad*%
%ADD19C,1.600000*%
%TD*%
%TA.AperFunction,ComponentPad*%
%ADD20RoundRect,0.250000X-0.550000X-0.550000X0.550000X-0.550000X0.550000X0.550000X-0.550000X0.550000X0*%
%TD*%
%TA.AperFunction,ComponentPad*%
%ADD21RoundRect,0.250000X0.750000X-0.750000X0.750000X0.750000X-0.750000X0.750000X-0.750000X-0.750000X0*%
%TD*%
%TA.AperFunction,ComponentPad*%
%ADD22R,1.800000X1.800000*%
%TD*%
%TA.AperFunction,ComponentPad*%
%ADD23C,1.800000*%
%TD*%
%TA.AperFunction,ComponentPad*%
%ADD24R,2.500000X2.500000*%
%TD*%
%TA.AperFunction,ComponentPad*%
%ADD25C,2.500000*%
%TD*%
%TA.AperFunction,ComponentPad*%
%ADD26R,1.600000X1.600000*%
%TD*%
%TA.AperFunction,ComponentPad*%
%ADD27O,1.600000X1.600000*%
%TD*%
%TA.AperFunction,ComponentPad*%
%ADD28RoundRect,0.250000X-0.550000X0.550000X-0.550000X-0.550000X0.550000X-0.550000X0.550000X0.550000X0*%
%TD*%
%TA.AperFunction,SMDPad,CuDef*%
%ADD29RoundRect,0.250000X-0.425000X-1.075000X0.425000X-1.075000X0.425000X1.075000X-0.425000X1.075000X0*%
%TD*%
%TA.AperFunction,ComponentPad*%
%ADD30RoundRect,0.249999X-0.850001X-0.850001X0.850001X-0.850001X0.850001X0.850001X-0.850001X0.850001X0*%
%TD*%
%TA.AperFunction,ComponentPad*%
%ADD31C,2.200000*%
%TD*%
%TA.AperFunction,SMDPad,CuDef*%
%ADD32RoundRect,0.150000X-0.587500X-0.150000X0.587500X-0.150000X0.587500X0.150000X-0.587500X0.150000X0*%
%TD*%
%TA.AperFunction,Conductor*%
%ADD33C,0.200000*%
%TD*%
G04 APERTURE END LIST*
D10*
D11*
X108554510Y-82800828D02*
X108554510Y-81300828D01*
X108554510Y-81300828D02*
X109054510Y-82372257D01*
X109054510Y-82372257D02*
X109554510Y-81300828D01*
X109554510Y-81300828D02*
X109554510Y-82800828D01*
X110483082Y-82800828D02*
X110340225Y-82729400D01*
X110340225Y-82729400D02*
X110268796Y-82657971D01*
X110268796Y-82657971D02*
X110197368Y-82515114D01*
X110197368Y-82515114D02*
X110197368Y-82086542D01*
X110197368Y-82086542D02*
X110268796Y-81943685D01*
X110268796Y-81943685D02*
X110340225Y-81872257D01*
X110340225Y-81872257D02*
X110483082Y-81800828D01*
X110483082Y-81800828D02*
X110697368Y-81800828D01*
X110697368Y-81800828D02*
X110840225Y-81872257D01*
X110840225Y-81872257D02*
X110911654Y-81943685D01*
X110911654Y-81943685D02*
X110983082Y-82086542D01*
X110983082Y-82086542D02*
X110983082Y-82515114D01*
X110983082Y-82515114D02*
X110911654Y-82657971D01*
X110911654Y-82657971D02*
X110840225Y-82729400D01*
X110840225Y-82729400D02*
X110697368Y-82800828D01*
X110697368Y-82800828D02*
X110483082Y-82800828D01*
X111625939Y-82800828D02*
X111625939Y-81300828D01*
X112268797Y-82800828D02*
X112268797Y-82015114D01*
X112268797Y-82015114D02*
X112197368Y-81872257D01*
X112197368Y-81872257D02*
X112054511Y-81800828D01*
X112054511Y-81800828D02*
X111840225Y-81800828D01*
X111840225Y-81800828D02*
X111697368Y-81872257D01*
X111697368Y-81872257D02*
X111625939Y-81943685D01*
X113625940Y-82800828D02*
X113625940Y-82015114D01*
X113625940Y-82015114D02*
X113554511Y-81872257D01*
X113554511Y-81872257D02*
X113411654Y-81800828D01*
X113411654Y-81800828D02*
X113125940Y-81800828D01*
X113125940Y-81800828D02*
X112983082Y-81872257D01*
X113625940Y-82729400D02*
X113483082Y-82800828D01*
X113483082Y-82800828D02*
X113125940Y-82800828D01*
X113125940Y-82800828D02*
X112983082Y-82729400D01*
X112983082Y-82729400D02*
X112911654Y-82586542D01*
X112911654Y-82586542D02*
X112911654Y-82443685D01*
X112911654Y-82443685D02*
X112983082Y-82300828D01*
X112983082Y-82300828D02*
X113125940Y-82229400D01*
X113125940Y-82229400D02*
X113483082Y-82229400D01*
X113483082Y-82229400D02*
X113625940Y-82157971D01*
X114340225Y-82800828D02*
X114340225Y-81800828D01*
X114340225Y-81943685D02*
X114411654Y-81872257D01*
X114411654Y-81872257D02*
X114554511Y-81800828D01*
X114554511Y-81800828D02*
X114768797Y-81800828D01*
X114768797Y-81800828D02*
X114911654Y-81872257D01*
X114911654Y-81872257D02*
X114983083Y-82015114D01*
X114983083Y-82015114D02*
X114983083Y-82800828D01*
X114983083Y-82015114D02*
X115054511Y-81872257D01*
X115054511Y-81872257D02*
X115197368Y-81800828D01*
X115197368Y-81800828D02*
X115411654Y-81800828D01*
X115411654Y-81800828D02*
X115554511Y-81872257D01*
X115554511Y-81872257D02*
X115625940Y-82015114D01*
X115625940Y-82015114D02*
X115625940Y-82800828D01*
X116911654Y-82729400D02*
X116768797Y-82800828D01*
X116768797Y-82800828D02*
X116483083Y-82800828D01*
X116483083Y-82800828D02*
X116340225Y-82729400D01*
X116340225Y-82729400D02*
X116268797Y-82586542D01*
X116268797Y-82586542D02*
X116268797Y-82015114D01*
X116268797Y-82015114D02*
X116340225Y-81872257D01*
X116340225Y-81872257D02*
X116483083Y-81800828D01*
X116483083Y-81800828D02*
X116768797Y-81800828D01*
X116768797Y-81800828D02*
X116911654Y-81872257D01*
X116911654Y-81872257D02*
X116983083Y-82015114D01*
X116983083Y-82015114D02*
X116983083Y-82157971D01*
X116983083Y-82157971D02*
X116268797Y-82300828D01*
X118268797Y-82800828D02*
X118268797Y-81300828D01*
X118268797Y-82729400D02*
X118125939Y-82800828D01*
X118125939Y-82800828D02*
X117840225Y-82800828D01*
X117840225Y-82800828D02*
X117697368Y-82729400D01*
X117697368Y-82729400D02*
X117625939Y-82657971D01*
X117625939Y-82657971D02*
X117554511Y-82515114D01*
X117554511Y-82515114D02*
X117554511Y-82086542D01*
X117554511Y-82086542D02*
X117625939Y-81943685D01*
X117625939Y-81943685D02*
X117697368Y-81872257D01*
X117697368Y-81872257D02*
X117840225Y-81800828D01*
X117840225Y-81800828D02*
X118125939Y-81800828D01*
X118125939Y-81800828D02*
X118268797Y-81872257D01*
X120125939Y-82015114D02*
X120625939Y-82015114D01*
X120840225Y-82800828D02*
X120125939Y-82800828D01*
X120125939Y-82800828D02*
X120125939Y-81300828D01*
X120125939Y-81300828D02*
X120840225Y-81300828D01*
X121697368Y-82800828D02*
X121554511Y-82729400D01*
X121554511Y-82729400D02*
X121483082Y-82586542D01*
X121483082Y-82586542D02*
X121483082Y-81300828D01*
X122911654Y-82800828D02*
X122911654Y-82015114D01*
X122911654Y-82015114D02*
X122840225Y-81872257D01*
X122840225Y-81872257D02*
X122697368Y-81800828D01*
X122697368Y-81800828D02*
X122411654Y-81800828D01*
X122411654Y-81800828D02*
X122268796Y-81872257D01*
X122911654Y-82729400D02*
X122768796Y-82800828D01*
X122768796Y-82800828D02*
X122411654Y-82800828D01*
X122411654Y-82800828D02*
X122268796Y-82729400D01*
X122268796Y-82729400D02*
X122197368Y-82586542D01*
X122197368Y-82586542D02*
X122197368Y-82443685D01*
X122197368Y-82443685D02*
X122268796Y-82300828D01*
X122268796Y-82300828D02*
X122411654Y-82229400D01*
X122411654Y-82229400D02*
X122768796Y-82229400D01*
X122768796Y-82229400D02*
X122911654Y-82157971D01*
X123554511Y-82729400D02*
X123697368Y-82800828D01*
X123697368Y-82800828D02*
X123983082Y-82800828D01*
X123983082Y-82800828D02*
X124125939Y-82729400D01*
X124125939Y-82729400D02*
X124197368Y-82586542D01*
X124197368Y-82586542D02*
X124197368Y-82515114D01*
X124197368Y-82515114D02*
X124125939Y-82372257D01*
X124125939Y-82372257D02*
X123983082Y-82300828D01*
X123983082Y-82300828D02*
X123768797Y-82300828D01*
X123768797Y-82300828D02*
X123625939Y-82229400D01*
X123625939Y-82229400D02*
X123554511Y-82086542D01*
X123554511Y-82086542D02*
X123554511Y-82015114D01*
X123554511Y-82015114D02*
X123625939Y-81872257D01*
X123625939Y-81872257D02*
X123768797Y-81800828D01*
X123768797Y-81800828D02*
X123983082Y-81800828D01*
X123983082Y-81800828D02*
X124125939Y-81872257D01*
X124840225Y-82800828D02*
X124840225Y-81300828D01*
X125483083Y-82800828D02*
X125483083Y-82015114D01*
X125483083Y-82015114D02*
X125411654Y-81872257D01*
X125411654Y-81872257D02*
X125268797Y-81800828D01*
X125268797Y-81800828D02*
X125054511Y-81800828D01*
X125054511Y-81800828D02*
X124911654Y-81872257D01*
X124911654Y-81872257D02*
X124840225Y-81943685D01*
X126197368Y-82800828D02*
X126197368Y-81800828D01*
X126197368Y-81943685D02*
X126268797Y-81872257D01*
X126268797Y-81872257D02*
X126411654Y-81800828D01*
X126411654Y-81800828D02*
X126625940Y-81800828D01*
X126625940Y-81800828D02*
X126768797Y-81872257D01*
X126768797Y-81872257D02*
X126840226Y-82015114D01*
X126840226Y-82015114D02*
X126840226Y-82800828D01*
X126840226Y-82015114D02*
X126911654Y-81872257D01*
X126911654Y-81872257D02*
X127054511Y-81800828D01*
X127054511Y-81800828D02*
X127268797Y-81800828D01*
X127268797Y-81800828D02*
X127411654Y-81872257D01*
X127411654Y-81872257D02*
X127483083Y-82015114D01*
X127483083Y-82015114D02*
X127483083Y-82800828D01*
X128840226Y-82800828D02*
X128840226Y-82015114D01*
X128840226Y-82015114D02*
X128768797Y-81872257D01*
X128768797Y-81872257D02*
X128625940Y-81800828D01*
X128625940Y-81800828D02*
X128340226Y-81800828D01*
X128340226Y-81800828D02*
X128197368Y-81872257D01*
X128840226Y-82729400D02*
X128697368Y-82800828D01*
X128697368Y-82800828D02*
X128340226Y-82800828D01*
X128340226Y-82800828D02*
X128197368Y-82729400D01*
X128197368Y-82729400D02*
X128125940Y-82586542D01*
X128125940Y-82586542D02*
X128125940Y-82443685D01*
X128125940Y-82443685D02*
X128197368Y-82300828D01*
X128197368Y-82300828D02*
X128340226Y-82229400D01*
X128340226Y-82229400D02*
X128697368Y-82229400D01*
X128697368Y-82229400D02*
X128840226Y-82157971D01*
X129411654Y-81800828D02*
X129697369Y-82800828D01*
X129697369Y-82800828D02*
X129983083Y-82086542D01*
X129983083Y-82086542D02*
X130268797Y-82800828D01*
X130268797Y-82800828D02*
X130554511Y-81800828D01*
X131125940Y-82800828D02*
X131125940Y-81800828D01*
X131125940Y-81300828D02*
X131054512Y-81372257D01*
X131054512Y-81372257D02*
X131125940Y-81443685D01*
X131125940Y-81443685D02*
X131197369Y-81372257D01*
X131197369Y-81372257D02*
X131125940Y-81300828D01*
X131125940Y-81300828D02*
X131125940Y-81443685D01*
X132983083Y-82229400D02*
X134125941Y-82229400D01*
X134840226Y-82229400D02*
X135983084Y-82229400D01*
X138697369Y-82657971D02*
X138625941Y-82729400D01*
X138625941Y-82729400D02*
X138411655Y-82800828D01*
X138411655Y-82800828D02*
X138268798Y-82800828D01*
X138268798Y-82800828D02*
X138054512Y-82729400D01*
X138054512Y-82729400D02*
X137911655Y-82586542D01*
X137911655Y-82586542D02*
X137840226Y-82443685D01*
X137840226Y-82443685D02*
X137768798Y-82157971D01*
X137768798Y-82157971D02*
X137768798Y-81943685D01*
X137768798Y-81943685D02*
X137840226Y-81657971D01*
X137840226Y-81657971D02*
X137911655Y-81515114D01*
X137911655Y-81515114D02*
X138054512Y-81372257D01*
X138054512Y-81372257D02*
X138268798Y-81300828D01*
X138268798Y-81300828D02*
X138411655Y-81300828D01*
X138411655Y-81300828D02*
X138625941Y-81372257D01*
X138625941Y-81372257D02*
X138697369Y-81443685D01*
X139625941Y-81300828D02*
X139911655Y-81300828D01*
X139911655Y-81300828D02*
X140054512Y-81372257D01*
X140054512Y-81372257D02*
X140197369Y-81515114D01*
X140197369Y-81515114D02*
X140268798Y-81800828D01*
X140268798Y-81800828D02*
X140268798Y-82300828D01*
X140268798Y-82300828D02*
X140197369Y-82586542D01*
X140197369Y-82586542D02*
X140054512Y-82729400D01*
X140054512Y-82729400D02*
X139911655Y-82800828D01*
X139911655Y-82800828D02*
X139625941Y-82800828D01*
X139625941Y-82800828D02*
X139483084Y-82729400D01*
X139483084Y-82729400D02*
X139340226Y-82586542D01*
X139340226Y-82586542D02*
X139268798Y-82300828D01*
X139268798Y-82300828D02*
X139268798Y-81800828D01*
X139268798Y-81800828D02*
X139340226Y-81515114D01*
X139340226Y-81515114D02*
X139483084Y-81372257D01*
X139483084Y-81372257D02*
X139625941Y-81300828D01*
X140911655Y-82800828D02*
X140911655Y-81300828D01*
X140911655Y-81300828D02*
X141411655Y-82372257D01*
X141411655Y-82372257D02*
X141911655Y-81300828D01*
X141911655Y-81300828D02*
X141911655Y-82800828D01*
X142625941Y-82800828D02*
X142625941Y-81300828D01*
X142625941Y-81300828D02*
X143483084Y-82800828D01*
X143483084Y-82800828D02*
X143483084Y-81300828D01*
X144483085Y-81300828D02*
X144768799Y-81300828D01*
X144768799Y-81300828D02*
X144911656Y-81372257D01*
X144911656Y-81372257D02*
X145054513Y-81515114D01*
X145054513Y-81515114D02*
X145125942Y-81800828D01*
X145125942Y-81800828D02*
X145125942Y-82300828D01*
X145125942Y-82300828D02*
X145054513Y-82586542D01*
X145054513Y-82586542D02*
X144911656Y-82729400D01*
X144911656Y-82729400D02*
X144768799Y-82800828D01*
X144768799Y-82800828D02*
X144483085Y-82800828D01*
X144483085Y-82800828D02*
X144340228Y-82729400D01*
X144340228Y-82729400D02*
X144197370Y-82586542D01*
X144197370Y-82586542D02*
X144125942Y-82300828D01*
X144125942Y-82300828D02*
X144125942Y-81800828D01*
X144125942Y-81800828D02*
X144197370Y-81515114D01*
X144197370Y-81515114D02*
X144340228Y-81372257D01*
X144340228Y-81372257D02*
X144483085Y-81300828D01*
X145554514Y-81300828D02*
X146054514Y-82800828D01*
X146054514Y-82800828D02*
X146554514Y-81300828D01*
X147340228Y-81300828D02*
X147625942Y-81300828D01*
X147625942Y-81300828D02*
X147768799Y-81372257D01*
X147768799Y-81372257D02*
X147911656Y-81515114D01*
X147911656Y-81515114D02*
X147983085Y-81800828D01*
X147983085Y-81800828D02*
X147983085Y-82300828D01*
X147983085Y-82300828D02*
X147911656Y-82586542D01*
X147911656Y-82586542D02*
X147768799Y-82729400D01*
X147768799Y-82729400D02*
X147625942Y-82800828D01*
X147625942Y-82800828D02*
X147340228Y-82800828D01*
X147340228Y-82800828D02*
X147197371Y-82729400D01*
X147197371Y-82729400D02*
X147054513Y-82586542D01*
X147054513Y-82586542D02*
X146983085Y-82300828D01*
X146983085Y-82300828D02*
X146983085Y-81800828D01*
X146983085Y-81800828D02*
X147054513Y-81515114D01*
X147054513Y-81515114D02*
X147197371Y-81372257D01*
X147197371Y-81372257D02*
X147340228Y-81300828D01*
D12*
%TO.P,RV3,1,1_1*%
%TO.N,Net-(R8-Pad1)*%
X176303516Y-115998516D03*
%TO.P,RV3,2,2_2*%
%TO.N,GND2*%
X178843516Y-115998516D03*
%TO.P,RV3,3,3_3*%
%TO.N,unconnected-(RV3-Pad3)*%
X181383516Y-115998516D03*
%TD*%
D13*
%TO.P,C2,1*%
%TO.N,/DC Line*%
X131803516Y-124322475D03*
D14*
%TO.P,C2,2*%
%TO.N,GND1*%
X131803516Y-119322475D03*
%TD*%
D15*
%TO.P,D5,1,K_1*%
%TO.N,Net-(D5-K)*%
X157423516Y-122498516D03*
D16*
%TO.P,D5,2,A_2*%
%TO.N,Net-(D5-A)*%
X142183516Y-122498516D03*
%TD*%
D17*
%TO.P,FL1,1,1_1*%
%TO.N,Net-(FL1-Pad1)*%
X108446016Y-103641016D03*
D18*
%TO.P,FL1,2,2_2*%
%TO.N,Net-(D15-Pad2)*%
X118446016Y-103641016D03*
%TO.P,FL1,3,3_3*%
%TO.N,Net-(J1-Pin_1)*%
X108446016Y-113641016D03*
%TO.P,FL1,4,4_4*%
%TO.N,Net-(D15-Pad4)*%
X118446016Y-113641016D03*
%TD*%
D19*
%TO.P,R3,1*%
%TO.N,/DC Line*%
X95723516Y-92498516D03*
%TO.P,R3,2*%
%TO.N,Net-(D1-K)*%
X105883516Y-92498516D03*
%TD*%
D20*
%TO.P,C6,1*%
%TO.N,Net-(D5-K)*%
X164650865Y-122498516D03*
D19*
%TO.P,C6,2*%
%TO.N,GND2*%
X168150865Y-122498516D03*
%TD*%
D21*
%TO.P,J1,1,Pin_1_1*%
%TO.N,Net-(J1-Pin_1)*%
X92721016Y-123308516D03*
D18*
%TO.P,J1,2,Pin_2_2*%
%TO.N,Net-(J1-Pin_2)*%
X92721016Y-119498516D03*
%TD*%
D19*
%TO.P,C9,1*%
%TO.N,Net-(U2-K)*%
X128553516Y-86498516D03*
%TO.P,C9,2*%
%TO.N,Net-(U2-REF)*%
X131053516Y-86498516D03*
%TD*%
D22*
%TO.P,D3,1,K_1*%
%TO.N,GND2*%
X168033516Y-91498516D03*
D23*
%TO.P,D3,2,A_2*%
%TO.N,Net-(D3-A)*%
X170573516Y-91498516D03*
%TD*%
D18*
%TO.P,C1,1*%
%TO.N,Net-(C1-Pad1)*%
X101303516Y-119998516D03*
%TO.P,C1,2*%
%TO.N,Net-(J1-Pin_1)*%
X101303516Y-109998516D03*
%TD*%
D19*
%TO.P,R6,1*%
%TO.N,Net-(U2-REF)*%
X174223516Y-102998516D03*
%TO.P,R6,2*%
%TO.N,+12V_2*%
X184383516Y-102998516D03*
%TD*%
D24*
%TO.P,T1,1,AA_1*%
%TO.N,/DC Line*%
X151836016Y-111526016D03*
D25*
%TO.P,T1,2*%
%TO.N,N/C*%
X151836016Y-107716016D03*
%TO.P,T1,4*%
X151836016Y-100096016D03*
%TO.P,T1,5,AB_5*%
%TO.N,Net-(D1-A)*%
X151836016Y-96286016D03*
%TO.P,T1,6,SC_6*%
%TO.N,Net-(D5-A)*%
X136596016Y-96286016D03*
%TO.P,T1,7,SD_7*%
X136596016Y-100096016D03*
%TO.P,T1,8*%
%TO.N,N/C*%
X136596016Y-103906016D03*
%TO.P,T1,9,SB_9*%
%TO.N,GND2*%
X136596016Y-107716016D03*
%TO.P,T1,10,SA_10*%
X136596016Y-111526016D03*
%TD*%
D20*
%TO.P,C10,1*%
%TO.N,Net-(U1-VDD)*%
X149803516Y-87498516D03*
D19*
%TO.P,C10,2*%
%TO.N,GND1*%
X152303516Y-87498516D03*
%TD*%
%TO.P,TH1,1*%
%TO.N,Net-(FL1-Pad1)*%
X108753516Y-118498516D03*
%TO.P,TH1,2*%
%TO.N,Net-(C1-Pad1)*%
X106853516Y-123498516D03*
%TD*%
%TO.P,R1,1*%
%TO.N,GND2*%
X174223516Y-85998516D03*
%TO.P,R1,2*%
%TO.N,Net-(J2-Pin_1)*%
X184383516Y-85998516D03*
%TD*%
D20*
%TO.P,C7,1*%
%TO.N,Net-(J2-Pin_1)*%
X164150865Y-97998516D03*
D19*
%TO.P,C7,2*%
%TO.N,GND2*%
X167650865Y-97998516D03*
%TD*%
D26*
%TO.P,D15,1,+_1*%
%TO.N,/DC Line*%
X114803516Y-125118516D03*
D27*
%TO.P,D15,2*%
%TO.N,Net-(D15-Pad2)*%
X119883516Y-125118516D03*
%TO.P,D15,3,-_3*%
%TO.N,GND1*%
X119883516Y-117498516D03*
%TO.P,D15,4*%
%TO.N,Net-(D15-Pad4)*%
X114803516Y-117498516D03*
%TD*%
D19*
%TO.P,C11,1*%
%TO.N,Net-(U1-FB)*%
X137803516Y-87498516D03*
%TO.P,C11,2*%
%TO.N,GND1*%
X140303516Y-87498516D03*
%TD*%
%TO.P,L1,1,1_1*%
%TO.N,Net-(D5-K)*%
X114223516Y-86998516D03*
%TO.P,L1,2,2_2*%
%TO.N,Net-(J2-Pin_1)*%
X124383516Y-86998516D03*
%TD*%
D28*
%TO.P,U3,1*%
%TO.N,Net-(R4-Pad1)*%
X159578516Y-101693516D03*
D19*
%TO.P,U3,2*%
%TO.N,Net-(U2-K)*%
X157038516Y-101693516D03*
%TO.P,U3,3*%
%TO.N,Net-(U1-FB)*%
X157038516Y-109313516D03*
%TO.P,U3,4*%
%TO.N,Net-(U1-VDD)*%
X159578516Y-109313516D03*
%TD*%
D23*
%TO.P,RV1,1*%
%TO.N,Net-(C1-Pad1)*%
X93403516Y-106748516D03*
%TO.P,RV1,2*%
%TO.N,Net-(J1-Pin_1)*%
X91203516Y-114248516D03*
%TD*%
D19*
%TO.P,R8,1*%
%TO.N,Net-(R8-Pad1)*%
X160223516Y-85998516D03*
%TO.P,R8,2*%
%TO.N,Net-(U2-REF)*%
X170383516Y-85998516D03*
%TD*%
D29*
%TO.P,F1,1*%
%TO.N,Net-(J1-Pin_2)*%
X99053516Y-123998516D03*
%TO.P,F1,2*%
%TO.N,Net-(C1-Pad1)*%
X103553516Y-123998516D03*
%TD*%
D30*
%TO.P,D1,1,K_1*%
%TO.N,Net-(D1-K)*%
X109223516Y-94498516D03*
D31*
%TO.P,D1,2,A_2*%
%TO.N,Net-(D1-A)*%
X119383516Y-94498516D03*
%TD*%
D18*
%TO.P,C3,1*%
%TO.N,GND1*%
X101303516Y-106248516D03*
%TO.P,C3,2*%
%TO.N,GND2*%
X101303516Y-98748516D03*
%TD*%
D20*
%TO.P,U1,1,S_1*%
%TO.N,GND1*%
X122993516Y-97188516D03*
D19*
%TO.P,U1,2,S_2*%
X122993516Y-99728516D03*
%TO.P,U1,3,FB_3*%
%TO.N,Net-(U1-FB)*%
X122993516Y-102268516D03*
%TO.P,U1,4,VDD_4*%
%TO.N,Net-(U1-VDD)*%
X122993516Y-104808516D03*
%TO.P,U1,5,D_5*%
%TO.N,Net-(D1-A)*%
X130613516Y-104808516D03*
%TO.P,U1,6,D_6*%
X130613516Y-102268516D03*
%TO.P,U1,7,D_7*%
X130613516Y-99728516D03*
%TO.P,U1,8,D_8*%
X130613516Y-97188516D03*
%TD*%
D28*
%TO.P,C5,1*%
%TO.N,+12V_1*%
X92803516Y-96845865D03*
D19*
%TO.P,C5,2*%
%TO.N,GND2*%
X92803516Y-100345865D03*
%TD*%
D18*
%TO.P,C4,1*%
%TO.N,/DC Line*%
X124303516Y-114498516D03*
%TO.P,C4,2*%
%TO.N,Net-(D1-K)*%
X124303516Y-109498516D03*
%TD*%
D19*
%TO.P,R7,1*%
%TO.N,Net-(U2-K)*%
X174223516Y-107998516D03*
%TO.P,R7,2*%
%TO.N,Net-(R4-Pad1)*%
X184383516Y-107998516D03*
%TD*%
%TO.P,R5,1*%
%TO.N,Net-(D3-A)*%
X174303516Y-97998516D03*
%TO.P,R5,2*%
%TO.N,Net-(J2-Pin_1)*%
X184463516Y-97998516D03*
%TD*%
D32*
%TO.P,U2,1,K_1*%
%TO.N,Net-(U2-K)*%
X90366016Y-87548516D03*
%TO.P,U2,2,REF_2*%
%TO.N,Net-(U2-REF)*%
X90366016Y-89448516D03*
%TO.P,U2,3,A_3*%
%TO.N,GND2*%
X92241016Y-88498516D03*
%TD*%
D21*
%TO.P,J2,1,Pin_1_1*%
%TO.N,Net-(J2-Pin_1)*%
X180221016Y-125403516D03*
D18*
%TO.P,J2,2,Pin_2_2*%
%TO.N,GND2*%
X180221016Y-121593516D03*
%TD*%
D20*
%TO.P,C8,1*%
%TO.N,+12V_2*%
X164303516Y-110498516D03*
D19*
%TO.P,C8,2*%
%TO.N,GND2*%
X167803516Y-110498516D03*
%TD*%
%TO.P,R4,1*%
%TO.N,Net-(R4-Pad1)*%
X174223516Y-91998516D03*
%TO.P,R4,2*%
%TO.N,+12V_1*%
X184383516Y-91998516D03*
%TD*%
%TO.N,Net-(R8-Pad1)*%
D33*
X163803516Y-108498516D02*
X161303516Y-110998516D01*
X161803516Y-115998516D02*
X176303516Y-115998516D01*
X161303516Y-115498516D02*
X161803516Y-115998516D01*
X160223516Y-92418516D02*
X163803516Y-95998516D01*
X163803516Y-95998516D02*
X170303516Y-95998516D01*
X165803516Y-108498516D02*
X163803516Y-108498516D01*
X161303516Y-110998516D02*
X161303516Y-115498516D01*
X160223516Y-85998516D02*
X160223516Y-92418516D01*
X165803516Y-103498516D02*
X165803516Y-108498516D01*
X170303516Y-98998516D02*
X165803516Y-103498516D01*
X170303516Y-95998516D02*
X170303516Y-98998516D01*
%TO.N,GND2*%
X99706167Y-100345865D02*
X101303516Y-98748516D01*
X168150865Y-120151167D02*
X168150865Y-122498516D01*
X136596016Y-107716016D02*
X136596016Y-111526016D01*
X153781016Y-109976016D02*
X161803516Y-117998516D01*
X92241016Y-92061016D02*
X88303516Y-95998516D01*
X90303516Y-100498516D02*
X90456167Y-100345865D01*
X168033516Y-91228516D02*
X168033516Y-91498516D01*
X88303516Y-95998516D02*
X88303516Y-98498516D01*
X88303516Y-98498516D02*
X90303516Y-100498516D01*
X92241016Y-88498516D02*
X92241016Y-92061016D01*
X166803516Y-89998516D02*
X168033516Y-91228516D01*
X168303516Y-119998516D02*
X168150865Y-120151167D01*
X178843516Y-115998516D02*
X178843516Y-120216016D01*
X168150865Y-122498516D02*
X179316016Y-122498516D01*
X166303516Y-117998516D02*
X168303516Y-119998516D01*
X136596016Y-111526016D02*
X138146016Y-109976016D01*
X90456167Y-100345865D02*
X92803516Y-100345865D01*
X178843516Y-120216016D02*
X180221016Y-121593516D01*
X92803516Y-100345865D02*
X99706167Y-100345865D01*
X179316016Y-122498516D02*
X180221016Y-121593516D01*
X170223516Y-89998516D02*
X166803516Y-89998516D01*
X138146016Y-109976016D02*
X153781016Y-109976016D01*
X161803516Y-117998516D02*
X166303516Y-117998516D01*
X174223516Y-85998516D02*
X170223516Y-89998516D01*
%TO.N,/DC Line*%
X124303516Y-127998516D02*
X124303516Y-114498516D01*
X131803516Y-124322475D02*
X127979557Y-124322475D01*
X114803516Y-125118516D02*
X117683516Y-127998516D01*
X117683516Y-127998516D02*
X124303516Y-127998516D01*
X144599975Y-111526016D02*
X131803516Y-124322475D01*
X151836016Y-111526016D02*
X144599975Y-111526016D01*
X127979557Y-124322475D02*
X124303516Y-127998516D01*
%TO.N,GND1*%
X131803516Y-119322475D02*
X131803516Y-116998516D01*
X140303516Y-87498516D02*
X140303516Y-92998516D01*
X119883516Y-111918516D02*
X119883516Y-113918516D01*
X121803516Y-111998516D02*
X119883516Y-113918516D01*
X154803516Y-87498516D02*
X152303516Y-87498516D01*
X122993516Y-97188516D02*
X122993516Y-99728516D01*
X101303516Y-106248516D02*
X101303516Y-101498516D01*
X140303516Y-92998516D02*
X149803516Y-102498516D01*
X101303516Y-101498516D02*
X102303516Y-100498516D01*
X153303516Y-102498516D02*
X154803516Y-100998516D01*
X131803516Y-116998516D02*
X126803516Y-111998516D01*
X121303516Y-110498516D02*
X119883516Y-111918516D01*
X111303516Y-100498516D02*
X121303516Y-110498516D01*
X126803516Y-111998516D02*
X121803516Y-111998516D01*
X119883516Y-113918516D02*
X119883516Y-117498516D01*
X149803516Y-102498516D02*
X153303516Y-102498516D01*
X102303516Y-100498516D02*
X111303516Y-100498516D01*
X154803516Y-100998516D02*
X154803516Y-87498516D01*
%TO.N,Net-(D5-A)*%
X136596016Y-96286016D02*
X136596016Y-100096016D01*
%TO.N,Net-(FL1-Pad1)*%
X105803516Y-115548516D02*
X105803516Y-104498516D01*
X106661016Y-103641016D02*
X108446016Y-103641016D01*
X105803516Y-104498516D02*
X106661016Y-103641016D01*
X108753516Y-118498516D02*
X105803516Y-115548516D01*
%TO.N,Net-(D15-Pad2)*%
X121003516Y-123998516D02*
X119883516Y-125118516D01*
X119803516Y-106998516D02*
X126803516Y-106998516D01*
X133803516Y-121498516D02*
X128803516Y-121498516D01*
X133803516Y-113998516D02*
X133803516Y-121498516D01*
X126303516Y-112998516D02*
X123965038Y-112998516D01*
X126303516Y-118998516D02*
X126303516Y-112998516D01*
X126803516Y-106998516D02*
X133803516Y-113998516D01*
X123965038Y-112998516D02*
X121303516Y-115660038D01*
X118446016Y-105641016D02*
X119803516Y-106998516D01*
X118446016Y-103641016D02*
X118446016Y-105641016D01*
X121303516Y-115660038D02*
X121303516Y-123998516D01*
X128803516Y-121498516D02*
X126303516Y-118998516D01*
X121303516Y-123998516D02*
X121003516Y-123998516D01*
%TO.N,Net-(J1-Pin_1)*%
X110303516Y-115498516D02*
X108446016Y-113641016D01*
X91203516Y-114248516D02*
X89803516Y-112848516D01*
X109306334Y-119998516D02*
X110303516Y-119001334D01*
X90113516Y-123308516D02*
X89303516Y-122498516D01*
X92721016Y-123308516D02*
X90113516Y-123308516D01*
X89553516Y-114248516D02*
X91203516Y-114248516D01*
X89803516Y-104998516D02*
X96303516Y-104998516D01*
X101303516Y-109998516D02*
X101303516Y-112604151D01*
X89303516Y-114498516D02*
X89553516Y-114248516D01*
X89303516Y-122498516D02*
X89303516Y-114498516D01*
X110303516Y-119001334D02*
X110303516Y-115498516D01*
X108303516Y-119998516D02*
X109306334Y-119998516D01*
X108297881Y-119598516D02*
X108297881Y-119992881D01*
X108297881Y-119992881D02*
X108303516Y-119998516D01*
X101303516Y-112604151D02*
X108297881Y-119598516D01*
X96303516Y-104998516D02*
X101303516Y-109998516D01*
X89803516Y-112848516D02*
X89803516Y-104998516D01*
%TO.N,Net-(D15-Pad4)*%
X114803516Y-117283516D02*
X114803516Y-117498516D01*
X118446016Y-113641016D02*
X114803516Y-117283516D01*
%TO.N,Net-(D1-K)*%
X121303516Y-109498516D02*
X108803516Y-96998516D01*
X124303516Y-109498516D02*
X121303516Y-109498516D01*
X108803516Y-96998516D02*
X109223516Y-96578516D01*
X109223516Y-96578516D02*
X109223516Y-94498516D01*
X105883516Y-92498516D02*
X107223516Y-92498516D01*
X107223516Y-92498516D02*
X109223516Y-94498516D01*
%TO.N,Net-(J1-Pin_2)*%
X92721016Y-119498516D02*
X97221016Y-123998516D01*
X97221016Y-123998516D02*
X99053516Y-123998516D01*
%TO.N,Net-(U2-K)*%
X128553516Y-86498516D02*
X127053516Y-84998516D01*
X91303516Y-84998516D02*
X91303516Y-86611016D01*
X127053516Y-84998516D02*
X91303516Y-84998516D01*
X91303516Y-86611016D02*
X90366016Y-87548516D01*
%TO.N,Net-(U2-REF)*%
X171783516Y-84598516D02*
X170383516Y-85998516D01*
X112803516Y-90498516D02*
X129803516Y-90498516D01*
X90366016Y-88926568D02*
X93294068Y-85998516D01*
X108803516Y-85998516D02*
X112803516Y-89998516D01*
X93294068Y-85998516D02*
X108803516Y-85998516D01*
X112803516Y-89998516D02*
X112803516Y-90498516D01*
X90366016Y-89448516D02*
X90366016Y-88926568D01*
X179903516Y-84598516D02*
X171783516Y-84598516D01*
X174223516Y-102998516D02*
X180303516Y-96918516D01*
X180303516Y-96918516D02*
X180303516Y-84998516D01*
X180303516Y-84998516D02*
X179903516Y-84598516D01*
X129803516Y-90498516D02*
X131053516Y-89248516D01*
X131053516Y-89248516D02*
X131053516Y-86498516D01*
%TO.N,Net-(C1-Pad1)*%
X106853516Y-122048516D02*
X106853516Y-123498516D01*
X103553516Y-123998516D02*
X106353516Y-123998516D01*
X106353516Y-123998516D02*
X106853516Y-123498516D01*
X99303516Y-118498516D02*
X99803516Y-118498516D01*
X99303516Y-112648516D02*
X99303516Y-118498516D01*
X93403516Y-106748516D02*
X99303516Y-112648516D01*
X104803516Y-119998516D02*
X106853516Y-122048516D01*
X99803516Y-118498516D02*
X101303516Y-119998516D01*
X101303516Y-119998516D02*
X104803516Y-119998516D01*
%TO.N,+12V_2*%
X184303516Y-112498516D02*
X163803516Y-112498516D01*
X163803516Y-112498516D02*
X162303516Y-110998516D01*
X184383516Y-102998516D02*
X185803516Y-104418516D01*
X185803516Y-104418516D02*
X185803516Y-110998516D01*
X185803516Y-110998516D02*
X184303516Y-112498516D01*
X162803516Y-110498516D02*
X164303516Y-110498516D01*
X162303516Y-110998516D02*
X162803516Y-110498516D01*
%TO.N,Net-(D1-A)*%
X143303516Y-84598516D02*
X139147881Y-84598516D01*
X130613516Y-99728516D02*
X130613516Y-97188516D01*
X129803516Y-94498516D02*
X119383516Y-94498516D01*
X139147881Y-84598516D02*
X130613516Y-93132881D01*
X130613516Y-97188516D02*
X130613516Y-95308516D01*
X143303516Y-87753516D02*
X143303516Y-84598516D01*
X130613516Y-93132881D02*
X130613516Y-97188516D01*
X151836016Y-96286016D02*
X143303516Y-87753516D01*
X130613516Y-102268516D02*
X130613516Y-99728516D01*
X130613516Y-95308516D02*
X129803516Y-94498516D01*
X130613516Y-104808516D02*
X130613516Y-102268516D01*
%TO.N,Net-(U1-VDD)*%
X161803516Y-97998516D02*
X159303516Y-95498516D01*
X161803516Y-107998516D02*
X161803516Y-97998516D01*
X159303516Y-95498516D02*
X156803516Y-95498516D01*
X154903516Y-84598516D02*
X150203516Y-84598516D01*
X150203516Y-84598516D02*
X149803516Y-84998516D01*
X159578516Y-109313516D02*
X160488516Y-109313516D01*
X156803516Y-86498516D02*
X154903516Y-84598516D01*
X160488516Y-109313516D02*
X161803516Y-107998516D01*
X149803516Y-84998516D02*
X149803516Y-87498516D01*
X156803516Y-95498516D02*
X156803516Y-86498516D01*
%TO.N,Net-(J2-Pin_1)*%
X171703516Y-102034151D02*
X171703516Y-97664201D01*
X171703516Y-97664201D02*
X175703516Y-93664201D01*
X167443516Y-93862881D02*
X161323516Y-87742881D01*
X131397881Y-84598516D02*
X138582195Y-84598516D01*
X118803617Y-93098516D02*
X117983516Y-93918617D01*
X129653516Y-86342881D02*
X131397881Y-84598516D01*
X130137831Y-108398516D02*
X132969202Y-108398516D01*
X117983516Y-93918617D02*
X117983516Y-99678516D01*
X159123516Y-92971167D02*
X164150865Y-97998516D01*
X175703516Y-91922881D02*
X174679151Y-90898516D01*
X155303516Y-108610699D02*
X155303516Y-109998516D01*
X128809152Y-87798515D02*
X129653516Y-86954151D01*
X170803516Y-93862881D02*
X167443516Y-93862881D01*
X130082195Y-93098516D02*
X118803617Y-93098516D01*
X184383516Y-85998516D02*
X186062675Y-87677675D01*
X173767881Y-90898516D02*
X170803516Y-93862881D01*
X184463516Y-97998516D02*
X178363516Y-104098516D01*
X161323516Y-85542881D02*
X160679151Y-84898516D01*
X117983516Y-99678516D02*
X121803516Y-103498516D01*
X175703516Y-93664201D02*
X175703516Y-91922881D01*
X135469202Y-105898516D02*
X152591333Y-105898516D01*
X138582195Y-84598516D02*
X130082195Y-93098516D01*
X178363516Y-104098516D02*
X173767881Y-104098516D01*
X164150865Y-106296802D02*
X164150865Y-97998516D01*
X159767881Y-84898516D02*
X159123516Y-85542881D01*
X132969202Y-108398516D02*
X135469202Y-105898516D01*
X129653516Y-86954151D02*
X129653516Y-86342881D01*
X124383516Y-86998516D02*
X125183515Y-87798515D01*
X159123516Y-85542881D02*
X159123516Y-92971167D01*
X186062675Y-97498516D02*
X184963516Y-97498516D01*
X160679151Y-84898516D02*
X159767881Y-84898516D01*
X121803516Y-103498516D02*
X125237831Y-103498516D01*
X155303516Y-109998516D02*
X156303516Y-110998516D01*
X125237831Y-103498516D02*
X130137831Y-108398516D01*
X186062675Y-87677675D02*
X186062675Y-97498516D01*
X174679151Y-90898516D02*
X173767881Y-90898516D01*
X156303516Y-110998516D02*
X159449151Y-110998516D01*
X152591333Y-105898516D02*
X155303516Y-108610699D01*
X184963516Y-97498516D02*
X184463516Y-97998516D01*
X159449151Y-110998516D02*
X164150865Y-106296802D01*
X125183515Y-87798515D02*
X128809152Y-87798515D01*
X173767881Y-104098516D02*
X171703516Y-102034151D01*
X161323516Y-87742881D02*
X161323516Y-85542881D01*
%TO.N,Net-(U1-FB)*%
X130303516Y-107998516D02*
X132803516Y-107998516D01*
X132803516Y-92498516D02*
X137803516Y-87498516D01*
X152723516Y-104998516D02*
X152303516Y-104998516D01*
X152303516Y-104998516D02*
X151803516Y-105498516D01*
X157038516Y-109313516D02*
X152723516Y-104998516D01*
X122993516Y-102268516D02*
X124573516Y-102268516D01*
X132803516Y-107998516D02*
X132803516Y-92498516D01*
X135303516Y-105498516D02*
X132803516Y-107998516D01*
X151803516Y-105498516D02*
X135303516Y-105498516D01*
X124573516Y-102268516D02*
X130303516Y-107998516D01*
%TO.N,Net-(R4-Pad1)*%
X171303516Y-96998516D02*
X174803516Y-93498516D01*
X171303516Y-102998516D02*
X171303516Y-96998516D01*
X174803516Y-93498516D02*
X175303516Y-93498516D01*
X175303516Y-93498516D02*
X175303516Y-93078516D01*
X176803516Y-105998516D02*
X174303516Y-105998516D01*
X178803516Y-107998516D02*
X176803516Y-105998516D01*
X184383516Y-107998516D02*
X178803516Y-107998516D01*
X174303516Y-105998516D02*
X171303516Y-102998516D01*
X175303516Y-93078516D02*
X174223516Y-91998516D01*
%TD*%
M02*
