%TF.GenerationSoftware,KiCad,Pcbnew,10.0.0-rc2*%
%TF.CreationDate,2026-08-28T20:57:52+00:00*%
%TF.ProjectId,wandler,77616e64-6c65-4722-9e6b-696361645f70,rev?*%
%TF.SameCoordinates,Original*%
%TF.FileFunction,Copper,L2,Bot*%
%TF.FilePolarity,Positive*%
%FSLAX46Y46*%
G04 Gerber Fmt 4.6, Leading zero omitted, Abs format (unit mm)*
G04 Created by KiCad (PCBNEW 10.0.0-rc2) date 2026-08-28 20:57:52*
%MOMM*%
%LPD*%
G01*
G04 APERTURE LIST*
G04 Aperture macros list*
%AMRoundRect*
0 Rectangle with rounded corners*
0 $1 Rounding radius*
0 $2 $3 $4 $5 $6 $7 $8 $9 X,Y pos of 4 corners*
0 Add a 4 corners polygon primitive as box body*
4,1,4,$2,$3,$4,$5,$6,$7,$8,$9,$2,$3,0*
0 Add four circle primitives for the rounded corners*
1,1,$1+$1,$2,$3*
1,1,$1+$1,$4,$5*
1,1,$1+$1,$6,$7*
1,1,$1+$1,$8,$9*
0 Add four rect primitives between the rounded corners*
20,1,$1+$1,$2,$3,$4,$5,0*
20,1,$1+$1,$4,$5,$6,$7,0*
20,1,$1+$1,$6,$7,$8,$9,0*
20,1,$1+$1,$8,$9,$2,$3,0*%
G04 Aperture macros list end*
%TA.AperFunction,ComponentPad*%
%ADD10C,1.440000*%
%TD*%
%TA.AperFunction,ComponentPad*%
%ADD11RoundRect,0.250001X0.949999X-0.949999X0.949999X0.949999X-0.949999X0.949999X-0.949999X-0.949999X0*%
%TD*%
%TA.AperFunction,ComponentPad*%
%ADD12C,2.400000*%
%TD*%
%TA.AperFunction,ComponentPad*%
%ADD13RoundRect,0.250000X1.350000X1.350000X-1.350000X1.350000X-1.350000X-1.350000X1.350000X-1.350000X0*%
%TD*%
%TA.AperFunction,ComponentPad*%
%ADD14C,3.200000*%
%TD*%
%TA.AperFunction,ComponentPad*%
%ADD15R,2.000000X2.000000*%
%TD*%
%TA.AperFunction,ComponentPad*%
%ADD16C,2.000000*%
%TD*%
%TA.AperFunction,ComponentPad*%
%ADD17C,1.600000*%
%TD*%
%TA.AperFunction,ComponentPad*%
%ADD18RoundRect,0.250000X-0.550000X-0.550000X0.550000X-0.550000X0.550000X0.550000X-0.550000X0.550000X0*%
%TD*%
%TA.AperFunction,ComponentPad*%
%ADD19RoundRect,0.250000X0.750000X-0.750000X0.750000X0.750000X-0.750000X0.750000X-0.750000X-0.750000X0*%
%TD*%
%TA.AperFunction,ComponentPad*%
%ADD20R,1.800000X1.800000*%
%TD*%
%TA.AperFunction,ComponentPad*%
%ADD21C,1.800000*%
%TD*%
%TA.AperFunction,ComponentPad*%
%ADD22R,2.500000X2.500000*%
%TD*%
%TA.AperFunction,ComponentPad*%
%ADD23C,2.500000*%
%TD*%
%TA.AperFunction,ComponentPad*%
%ADD24R,1.600000X1.600000*%
%TD*%
%TA.AperFunction,ComponentPad*%
%ADD25O,1.600000X1.600000*%
%TD*%
%TA.AperFunction,ComponentPad*%
%ADD26RoundRect,0.250000X-0.550000X0.550000X-0.550000X-0.550000X0.550000X-0.550000X0.550000X0.550000X0*%
%TD*%
%TA.AperFunction,ComponentPad*%
%ADD27RoundRect,0.249999X-0.850001X-0.850001X0.850001X-0.850001X0.850001X0.850001X-0.850001X0.850001X0*%
%TD*%
%TA.AperFunction,ComponentPad*%
%ADD28C,2.200000*%
%TD*%
%TA.AperFunction,Conductor*%
%ADD29C,0.200000*%
%TD*%
G04 APERTURE END LIST*
D10*
%TO.P,RV3,1,1_1*%
%TO.N,Net-(R8-Pad1)*%
X176303516Y-115998516D03*
%TO.P,RV3,2,2_2*%
%TO.N,GND2*%
X178843516Y-115998516D03*
%TO.P,RV3,3,3_3*%
%TO.N,unconnected-(RV3-Pad3)*%
X181383516Y-115998516D03*
%TD*%
D11*
%TO.P,C2,1*%
%TO.N,/DC Line*%
X131803516Y-124322475D03*
D12*
%TO.P,C2,2*%
%TO.N,GND1*%
X131803516Y-119322475D03*
%TD*%
D13*
%TO.P,D5,1,K_1*%
%TO.N,Net-(D5-K)*%
X157423516Y-122498516D03*
D14*
%TO.P,D5,2,A_2*%
%TO.N,Net-(D5-A)*%
X142183516Y-122498516D03*
%TD*%
D15*
%TO.P,FL1,1,1_1*%
%TO.N,Net-(FL1-Pad1)*%
X108446016Y-103641016D03*
D16*
%TO.P,FL1,2,2_2*%
%TO.N,Net-(D15-Pad2)*%
X118446016Y-103641016D03*
%TO.P,FL1,3,3_3*%
%TO.N,Net-(J1-Pin_1)*%
X108446016Y-113641016D03*
%TO.P,FL1,4,4_4*%
%TO.N,Net-(D15-Pad4)*%
X118446016Y-113641016D03*
%TD*%
D17*
%TO.P,R3,1*%
%TO.N,/DC Line*%
X95723516Y-92498516D03*
%TO.P,R3,2*%
%TO.N,Net-(D1-K)*%
X105883516Y-92498516D03*
%TD*%
D18*
%TO.P,C6,1*%
%TO.N,Net-(D5-K)*%
X164650865Y-122498516D03*
D17*
%TO.P,C6,2*%
%TO.N,GND2*%
X168150865Y-122498516D03*
%TD*%
D19*
%TO.P,J1,1,Pin_1_1*%
%TO.N,Net-(J1-Pin_1)*%
X92721016Y-123308516D03*
D16*
%TO.P,J1,2,Pin_2_2*%
%TO.N,Net-(J1-Pin_2)*%
X92721016Y-119498516D03*
%TD*%
D17*
%TO.P,C9,1*%
%TO.N,Net-(U2-K)*%
X128553516Y-86498516D03*
%TO.P,C9,2*%
%TO.N,Net-(U2-REF)*%
X131053516Y-86498516D03*
%TD*%
D20*
%TO.P,D3,1,K_1*%
%TO.N,GND2*%
X168033516Y-91498516D03*
D21*
%TO.P,D3,2,A_2*%
%TO.N,Net-(D3-A)*%
X170573516Y-91498516D03*
%TD*%
D16*
%TO.P,C1,1*%
%TO.N,Net-(C1-Pad1)*%
X101303516Y-119998516D03*
%TO.P,C1,2*%
%TO.N,Net-(J1-Pin_1)*%
X101303516Y-109998516D03*
%TD*%
D17*
%TO.P,R6,1*%
%TO.N,Net-(U2-REF)*%
X174223516Y-102998516D03*
%TO.P,R6,2*%
%TO.N,+12V_2*%
X184383516Y-102998516D03*
%TD*%
D22*
%TO.P,T1,1,AA_1*%
%TO.N,/DC Line*%
X151836016Y-111526016D03*
D23*
%TO.P,T1,2*%
%TO.N,N/C*%
X151836016Y-107716016D03*
%TO.P,T1,4*%
X151836016Y-100096016D03*
%TO.P,T1,5,AB_5*%
%TO.N,Net-(D1-A)*%
X151836016Y-96286016D03*
%TO.P,T1,6,SC_6*%
%TO.N,Net-(D5-A)*%
X136596016Y-96286016D03*
%TO.P,T1,7,SD_7*%
X136596016Y-100096016D03*
%TO.P,T1,8*%
%TO.N,N/C*%
X136596016Y-103906016D03*
%TO.P,T1,9,SB_9*%
%TO.N,GND2*%
X136596016Y-107716016D03*
%TO.P,T1,10,SA_10*%
X136596016Y-111526016D03*
%TD*%
D18*
%TO.P,C10,1*%
%TO.N,Net-(U1-VDD)*%
X149803516Y-87498516D03*
D17*
%TO.P,C10,2*%
%TO.N,GND1*%
X152303516Y-87498516D03*
%TD*%
%TO.P,TH1,1*%
%TO.N,Net-(FL1-Pad1)*%
X108753516Y-118498516D03*
%TO.P,TH1,2*%
%TO.N,Net-(C1-Pad1)*%
X106853516Y-123498516D03*
%TD*%
%TO.P,R1,1*%
%TO.N,GND2*%
X174223516Y-85998516D03*
%TO.P,R1,2*%
%TO.N,Net-(J2-Pin_1)*%
X184383516Y-85998516D03*
%TD*%
D18*
%TO.P,C7,1*%
%TO.N,Net-(J2-Pin_1)*%
X164150865Y-97998516D03*
D17*
%TO.P,C7,2*%
%TO.N,GND2*%
X167650865Y-97998516D03*
%TD*%
D24*
%TO.P,D15,1,+_1*%
%TO.N,/DC Line*%
X114803516Y-125118516D03*
D25*
%TO.P,D15,2*%
%TO.N,Net-(D15-Pad2)*%
X119883516Y-125118516D03*
%TO.P,D15,3,-_3*%
%TO.N,GND1*%
X119883516Y-117498516D03*
%TO.P,D15,4*%
%TO.N,Net-(D15-Pad4)*%
X114803516Y-117498516D03*
%TD*%
D17*
%TO.P,C11,1*%
%TO.N,Net-(U1-FB)*%
X137803516Y-87498516D03*
%TO.P,C11,2*%
%TO.N,GND1*%
X140303516Y-87498516D03*
%TD*%
%TO.P,L1,1,1_1*%
%TO.N,Net-(D5-K)*%
X114223516Y-86998516D03*
%TO.P,L1,2,2_2*%
%TO.N,Net-(J2-Pin_1)*%
X124383516Y-86998516D03*
%TD*%
D26*
%TO.P,U3,1*%
%TO.N,Net-(R4-Pad1)*%
X159578516Y-101693516D03*
D17*
%TO.P,U3,2*%
%TO.N,Net-(U2-K)*%
X157038516Y-101693516D03*
%TO.P,U3,3*%
%TO.N,Net-(U1-FB)*%
X157038516Y-109313516D03*
%TO.P,U3,4*%
%TO.N,Net-(U1-VDD)*%
X159578516Y-109313516D03*
%TD*%
D21*
%TO.P,RV1,1*%
%TO.N,Net-(C1-Pad1)*%
X93403516Y-106748516D03*
%TO.P,RV1,2*%
%TO.N,Net-(J1-Pin_1)*%
X91203516Y-114248516D03*
%TD*%
D17*
%TO.P,R8,1*%
%TO.N,Net-(R8-Pad1)*%
X160223516Y-85998516D03*
%TO.P,R8,2*%
%TO.N,Net-(U2-REF)*%
X170383516Y-85998516D03*
%TD*%
D27*
%TO.P,D1,1,K_1*%
%TO.N,Net-(D1-K)*%
X109223516Y-94498516D03*
D28*
%TO.P,D1,2,A_2*%
%TO.N,Net-(D1-A)*%
X119383516Y-94498516D03*
%TD*%
D16*
%TO.P,C3,1*%
%TO.N,GND1*%
X101303516Y-106248516D03*
%TO.P,C3,2*%
%TO.N,GND2*%
X101303516Y-98748516D03*
%TD*%
D18*
%TO.P,U1,1,S_1*%
%TO.N,GND1*%
X122993516Y-97188516D03*
D17*
%TO.P,U1,2,S_2*%
X122993516Y-99728516D03*
%TO.P,U1,3,FB_3*%
%TO.N,Net-(U1-FB)*%
X122993516Y-102268516D03*
%TO.P,U1,4,VDD_4*%
%TO.N,Net-(U1-VDD)*%
X122993516Y-104808516D03*
%TO.P,U1,5,D_5*%
%TO.N,Net-(D1-A)*%
X130613516Y-104808516D03*
%TO.P,U1,6,D_6*%
X130613516Y-102268516D03*
%TO.P,U1,7,D_7*%
X130613516Y-99728516D03*
%TO.P,U1,8,D_8*%
X130613516Y-97188516D03*
%TD*%
D26*
%TO.P,C5,1*%
%TO.N,+12V_1*%
X92803516Y-96845865D03*
D17*
%TO.P,C5,2*%
%TO.N,GND2*%
X92803516Y-100345865D03*
%TD*%
D16*
%TO.P,C4,1*%
%TO.N,/DC Line*%
X124303516Y-114498516D03*
%TO.P,C4,2*%
%TO.N,Net-(D1-K)*%
X124303516Y-109498516D03*
%TD*%
D17*
%TO.P,R7,1*%
%TO.N,Net-(U2-K)*%
X174223516Y-107998516D03*
%TO.P,R7,2*%
%TO.N,Net-(R4-Pad1)*%
X184383516Y-107998516D03*
%TD*%
%TO.P,R5,1*%
%TO.N,Net-(D3-A)*%
X174303516Y-97998516D03*
%TO.P,R5,2*%
%TO.N,Net-(J2-Pin_1)*%
X184463516Y-97998516D03*
%TD*%
D19*
%TO.P,J2,1,Pin_1_1*%
%TO.N,Net-(J2-Pin_1)*%
X180221016Y-125403516D03*
D16*
%TO.P,J2,2,Pin_2_2*%
%TO.N,GND2*%
X180221016Y-121593516D03*
%TD*%
D18*
%TO.P,C8,1*%
%TO.N,+12V_2*%
X164303516Y-110498516D03*
D17*
%TO.P,C8,2*%
%TO.N,GND2*%
X167803516Y-110498516D03*
%TD*%
%TO.P,R4,1*%
%TO.N,Net-(R4-Pad1)*%
X174223516Y-91998516D03*
%TO.P,R4,2*%
%TO.N,+12V_1*%
X184383516Y-91998516D03*
%TD*%
%TO.N,GND2*%
D29*
X106544813Y-98748516D02*
X130618772Y-122822475D01*
X169960673Y-93425673D02*
X168033516Y-91498516D01*
X175323516Y-105671167D02*
X175323516Y-108478516D01*
X171803516Y-97998516D02*
X176303516Y-93498516D01*
X167650865Y-97998516D02*
X175323516Y-105671167D01*
X176303516Y-93498516D02*
X175803516Y-92998516D01*
X167650865Y-97998516D02*
X171803516Y-97998516D01*
X140803516Y-126998516D02*
X167803516Y-126998516D01*
X175303516Y-90498516D02*
X173303516Y-90498516D01*
X136627475Y-122822475D02*
X140803516Y-126998516D01*
X175803516Y-92998516D02*
X175803516Y-90998516D01*
X167803516Y-126498516D02*
X168150865Y-126151167D01*
X172230673Y-91571359D02*
X172230673Y-93425673D01*
X173303516Y-110498516D02*
X173343516Y-110498516D01*
X168150865Y-126151167D02*
X168150865Y-122498516D01*
X167803516Y-110498516D02*
X173303516Y-110498516D01*
X173343516Y-110498516D02*
X178843516Y-115998516D01*
X101303516Y-98748516D02*
X106544813Y-98748516D01*
X175803516Y-90998516D02*
X175303516Y-90498516D01*
X130618772Y-122822475D02*
X136627475Y-122822475D01*
X172230673Y-93425673D02*
X169960673Y-93425673D01*
X167803516Y-126998516D02*
X167803516Y-126498516D01*
X175323516Y-108478516D02*
X173303516Y-110498516D01*
X173303516Y-90498516D02*
X172230673Y-91571359D01*
%TO.N,/DC Line*%
X101803516Y-92498516D02*
X121303516Y-111998516D01*
X121303516Y-111998516D02*
X123803516Y-111998516D01*
X95723516Y-92498516D02*
X101803516Y-92498516D01*
X123803516Y-111998516D02*
X124303516Y-112498516D01*
X124303516Y-112498516D02*
X124303516Y-114498516D01*
%TO.N,GND1*%
X132303516Y-105998516D02*
X132803516Y-105498516D01*
X135046016Y-99453984D02*
X135953984Y-98546016D01*
X120803516Y-104998516D02*
X121803516Y-105998516D01*
X176969201Y-89598516D02*
X179863516Y-92492831D01*
X152303516Y-85998516D02*
X152303516Y-87498516D01*
X141803516Y-91998516D02*
X145803516Y-95998516D01*
X141716702Y-98546016D02*
X150664202Y-89598516D01*
X154803516Y-85998516D02*
X152303516Y-85998516D01*
X179863516Y-116421014D02*
X179266014Y-117018516D01*
X185803516Y-89998516D02*
X183803516Y-87998516D01*
X183803516Y-87998516D02*
X156803516Y-87998516D01*
X155803516Y-98932831D02*
X165237831Y-89498516D01*
X134127475Y-119322475D02*
X131803516Y-119322475D01*
X132803516Y-105498516D02*
X132803516Y-94998516D01*
X149803516Y-125498516D02*
X140303516Y-125498516D01*
X135803516Y-91998516D02*
X141803516Y-91998516D01*
X179266014Y-117018516D02*
X158283516Y-117018516D01*
X178303516Y-89498516D02*
X183803516Y-94998516D01*
X185803516Y-94998516D02*
X185803516Y-89998516D01*
X150664202Y-89598516D02*
X176969201Y-89598516D01*
X121803516Y-105998516D02*
X131601484Y-105998516D01*
X120803516Y-99378516D02*
X120803516Y-104998516D01*
X135046016Y-102553984D02*
X135046016Y-99453984D01*
X145803516Y-95998516D02*
X145803516Y-103498516D01*
X153303516Y-103498516D02*
X155803516Y-100998516D01*
X131601484Y-105998516D02*
X135046016Y-102553984D01*
X156803516Y-87998516D02*
X154803516Y-85998516D01*
X165237831Y-89498516D02*
X178303516Y-89498516D01*
X140303516Y-125498516D02*
X134127475Y-119322475D01*
X179863516Y-92492831D02*
X179863516Y-116421014D01*
X155803516Y-100998516D02*
X155803516Y-98932831D01*
X135953984Y-98546016D02*
X141716702Y-98546016D01*
X183803516Y-94998516D02*
X185803516Y-94998516D01*
X145803516Y-103498516D02*
X153303516Y-103498516D01*
X121803516Y-105998516D02*
X132303516Y-105998516D01*
X158283516Y-117018516D02*
X149803516Y-125498516D01*
X122993516Y-97188516D02*
X120803516Y-99378516D01*
X132803516Y-94998516D02*
X135803516Y-91998516D01*
%TO.N,Net-(D5-K)*%
X170803516Y-117498516D02*
X165803516Y-117498516D01*
X105303516Y-121998516D02*
X105303516Y-125998516D01*
X164303516Y-118998516D02*
X164650865Y-119345865D01*
X91303516Y-91867145D02*
X91303516Y-107998516D01*
X167182329Y-128185388D02*
X170803516Y-124564201D01*
X164650865Y-119345865D02*
X164650865Y-122498516D01*
X165803516Y-117498516D02*
X164303516Y-118998516D01*
X164650865Y-122498516D02*
X157423516Y-122498516D01*
X107490388Y-128185388D02*
X167182329Y-128185388D01*
X96172145Y-86998516D02*
X91303516Y-91867145D01*
X114223516Y-86998516D02*
X96172145Y-86998516D01*
X170803516Y-124564201D02*
X170803516Y-117498516D01*
X105303516Y-125998516D02*
X107490388Y-128185388D01*
X91303516Y-107998516D02*
X105303516Y-121998516D01*
%TO.N,Net-(D5-A)*%
X140401016Y-100096016D02*
X136596016Y-100096016D01*
X142183516Y-122498516D02*
X142183516Y-101878516D01*
X142183516Y-101878516D02*
X140401016Y-100096016D01*
%TO.N,Net-(U2-K)*%
X157038516Y-101693516D02*
X160843516Y-105498516D01*
X163803516Y-107998516D02*
X174223516Y-107998516D01*
X124396510Y-107398516D02*
X141396510Y-124398516D01*
X112154887Y-90964202D02*
X120403516Y-99212831D01*
X171723516Y-105498516D02*
X174223516Y-107998516D01*
X91703516Y-97630609D02*
X92018772Y-97945865D01*
X120403516Y-99212831D02*
X120403516Y-107164201D01*
X92018772Y-97945865D02*
X93588260Y-97945865D01*
X128553516Y-86498516D02*
X125853516Y-89198516D01*
X141396510Y-124398516D02*
X147403516Y-124398516D01*
X91703516Y-92032830D02*
X91703516Y-97630609D01*
X125853516Y-89198516D02*
X94537830Y-89198516D01*
X120637831Y-107398516D02*
X124396510Y-107398516D01*
X147403516Y-124398516D02*
X163803516Y-107998516D01*
X160843516Y-105498516D02*
X171723516Y-105498516D01*
X93903516Y-90964202D02*
X112154887Y-90964202D01*
X120403516Y-107164201D02*
X120637831Y-107398516D01*
X93588260Y-97945865D02*
X93903516Y-97630609D01*
X94537830Y-89198516D02*
X91703516Y-92032830D01*
X93903516Y-97630609D02*
X93903516Y-90964202D01*
%TO.N,Net-(U2-REF)*%
X131053516Y-86498516D02*
X132653516Y-84898516D01*
X169283516Y-84898516D02*
X170383516Y-85998516D01*
X132653516Y-84898516D02*
X169283516Y-84898516D01*
%TO.N,Net-(D3-A)*%
X172073516Y-89998516D02*
X176803516Y-89998516D01*
X170573516Y-91498516D02*
X172073516Y-89998516D01*
X176803516Y-89998516D02*
X176803516Y-95498516D01*
X176803516Y-95498516D02*
X174303516Y-97998516D01*
%TO.N,Net-(U1-VDD)*%
X122993516Y-104808516D02*
X126593516Y-101208516D01*
X126593516Y-101208516D02*
X126593516Y-93288516D01*
X126593516Y-93288516D02*
X126303516Y-92998516D01*
X129303516Y-89998516D02*
X147303516Y-89998516D01*
X147303516Y-89998516D02*
X149803516Y-87498516D01*
X126303516Y-92998516D02*
X129303516Y-89998516D01*
%TO.N,Net-(J2-Pin_1)*%
X185483516Y-114318516D02*
X185483516Y-99018516D01*
X185303516Y-114498516D02*
X185483516Y-114318516D01*
X185483516Y-99018516D02*
X184463516Y-97998516D01*
X185483516Y-120141016D02*
X185483516Y-114678516D01*
X180221016Y-125403516D02*
X185483516Y-120141016D01*
X185483516Y-114678516D02*
X185303516Y-114498516D01*
%TO.N,Net-(R4-Pad1)*%
X160303516Y-94998516D02*
X159578516Y-95723516D01*
X174223516Y-91998516D02*
X171223516Y-94998516D01*
X171223516Y-94998516D02*
X160303516Y-94998516D01*
X159578516Y-95723516D02*
X159578516Y-101693516D01*
%TO.N,+12V_1*%
X94703516Y-89598516D02*
X92803516Y-91498516D01*
X92803516Y-91498516D02*
X92803516Y-96845865D01*
X180983516Y-88598516D02*
X151218772Y-88598516D01*
X129509151Y-89598516D02*
X94703516Y-89598516D01*
X150903516Y-88283260D02*
X150903516Y-86713772D01*
X150903516Y-86713772D02*
X150588260Y-86398516D01*
X184383516Y-91998516D02*
X180983516Y-88598516D01*
X150588260Y-86398516D02*
X132709151Y-86398516D01*
X151218772Y-88598516D02*
X150903516Y-88283260D01*
X132709151Y-86398516D02*
X129509151Y-89598516D01*
%TD*%
M02*
